<svg width="1048" height="165" viewBox="0 0 1048 165" fill="none" xmlns="http://www.w3.org/2000/svg">
<path fill-rule="evenodd" clip-rule="evenodd" d="M109.716 82.2868L82.2868 54.8579L54.8579 82.2868L82.2868 109.716L109.716 82.2868ZM82.2868 0L1.58426e-06 82.2868L82.2868 164.574L164.574 82.2868L82.2868 0Z" fill="white"/>
<path d="M204.284 136.636V64.6364H220.784V73.6023H221.295C221.977 72.0114 222.943 70.4773 224.193 69C225.466 67.5227 227.08 66.3182 229.034 65.3864C231.011 64.4318 233.375 63.9545 236.125 63.9545C239.761 63.9545 243.159 64.9091 246.318 66.8182C249.5 68.7273 252.068 71.6705 254.023 75.6477C255.977 79.625 256.955 84.6932 256.955 90.8523C256.955 96.7841 256.011 101.75 254.125 105.75C252.261 109.75 249.739 112.75 246.557 114.75C243.398 116.75 239.886 117.75 236.023 117.75C233.386 117.75 231.102 117.318 229.17 116.455C227.239 115.591 225.614 114.455 224.295 113.045C223 111.636 222 110.125 221.295 108.511H220.955V136.636H204.284ZM220.614 90.8182C220.614 93.6364 220.989 96.0909 221.739 98.1818C222.511 100.273 223.614 101.898 225.045 103.057C226.5 104.193 228.239 104.761 230.261 104.761C232.307 104.761 234.045 104.193 235.477 103.057C236.909 101.898 237.989 100.273 238.716 98.1818C239.466 96.0909 239.841 93.6364 239.841 90.8182C239.841 88 239.466 85.5568 238.716 83.4886C237.989 81.4205 236.909 79.8182 235.477 78.6818C234.068 77.5455 232.33 76.9773 230.261 76.9773C228.216 76.9773 226.477 77.5341 225.045 78.6477C223.614 79.7614 222.511 81.3523 221.739 83.4205C220.989 85.4886 220.614 87.9545 220.614 90.8182ZM265.69 117V64.6364H281.884V74.1818H282.429C283.384 70.7273 284.94 68.1591 287.099 66.4773C289.259 64.7727 291.77 63.9205 294.634 63.9205C295.406 63.9205 296.202 63.9773 297.02 64.0909C297.838 64.1818 298.599 64.3295 299.304 64.5341V79.0227C298.509 78.75 297.463 78.5341 296.168 78.375C294.895 78.2159 293.759 78.1364 292.759 78.1364C290.781 78.1364 288.997 78.5795 287.406 79.4659C285.838 80.3295 284.599 81.5455 283.69 83.1136C282.804 84.6591 282.361 86.4773 282.361 88.5682V117H265.69ZM327.821 117.989C322.321 117.989 317.594 116.864 313.639 114.614C309.707 112.341 306.673 109.182 304.537 105.136C302.423 101.068 301.366 96.3523 301.366 90.9886C301.366 85.6023 302.423 80.8864 304.537 76.8409C306.673 72.7727 309.707 69.6136 313.639 67.3636C317.594 65.0909 322.321 63.9545 327.821 63.9545C333.321 63.9545 338.037 65.0909 341.969 67.3636C345.923 69.6136 348.957 72.7727 351.071 76.8409C353.207 80.8864 354.276 85.6023 354.276 90.9886C354.276 96.3523 353.207 101.068 351.071 105.136C348.957 109.182 345.923 112.341 341.969 114.614C338.037 116.864 333.321 117.989 327.821 117.989ZM327.923 105.409C329.923 105.409 331.616 104.795 333.003 103.568C334.389 102.341 335.446 100.636 336.173 98.4545C336.923 96.2727 337.298 93.75 337.298 90.8864C337.298 87.9773 336.923 85.4318 336.173 83.25C335.446 81.0682 334.389 79.3636 333.003 78.1364C331.616 76.9091 329.923 76.2955 327.923 76.2955C325.855 76.2955 324.105 76.9091 322.673 78.1364C321.264 79.3636 320.185 81.0682 319.435 83.25C318.707 85.4318 318.344 87.9773 318.344 90.8864C318.344 93.75 318.707 96.2727 319.435 98.4545C320.185 100.636 321.264 102.341 322.673 103.568C324.105 104.795 325.855 105.409 327.923 105.409ZM387.259 117.989C381.736 117.989 376.997 116.852 373.043 114.58C369.111 112.307 366.088 109.148 363.974 105.102C361.861 101.034 360.804 96.3295 360.804 90.9886C360.804 85.625 361.861 80.9205 363.974 76.875C366.111 72.8068 369.145 69.6364 373.077 67.3636C377.031 65.0909 381.747 63.9545 387.224 63.9545C392.065 63.9545 396.281 64.8295 399.872 66.5795C403.486 68.3295 406.304 70.8068 408.327 74.0114C410.372 77.1932 411.452 80.9318 411.565 85.2273H395.986C395.668 82.5455 394.759 80.4432 393.259 78.9205C391.781 77.3977 389.849 76.6364 387.463 76.6364C385.531 76.6364 383.838 77.1818 382.384 78.2727C380.929 79.3409 379.793 80.9318 378.974 83.0455C378.179 85.1364 377.781 87.7273 377.781 90.8182C377.781 93.9091 378.179 96.5227 378.974 98.6591C379.793 100.773 380.929 102.375 382.384 103.466C383.838 104.534 385.531 105.068 387.463 105.068C389.009 105.068 390.372 104.739 391.554 104.08C392.759 103.42 393.747 102.455 394.52 101.182C395.293 99.8864 395.781 98.3182 395.986 96.4773H411.565C411.406 100.795 410.327 104.568 408.327 107.795C406.349 111.023 403.565 113.534 399.974 115.33C396.406 117.102 392.168 117.989 387.259 117.989ZM444.574 117.989C439.097 117.989 434.369 116.909 430.392 114.75C426.438 112.568 423.392 109.466 421.256 105.443C419.142 101.398 418.085 96.5909 418.085 91.0227C418.085 85.6136 419.153 80.8864 421.29 76.8409C423.426 72.7727 426.438 69.6136 430.324 67.3636C434.21 65.0909 438.79 63.9545 444.062 63.9545C447.79 63.9545 451.199 64.5341 454.29 65.6932C457.381 66.8523 460.051 68.5682 462.301 70.8409C464.551 73.1136 466.301 75.9205 467.551 79.2614C468.801 82.5795 469.426 86.3864 469.426 90.6818V94.8409H423.915V85.1591H453.915C453.892 83.3864 453.472 81.8068 452.653 80.4205C451.835 79.0341 450.71 77.9545 449.278 77.1818C447.869 76.3864 446.244 75.9886 444.403 75.9886C442.54 75.9886 440.869 76.4091 439.392 77.25C437.915 78.0682 436.744 79.1932 435.881 80.625C435.017 82.0341 434.563 83.6364 434.517 85.4318V95.2841C434.517 97.4205 434.938 99.2955 435.778 100.909C436.619 102.5 437.812 103.739 439.358 104.625C440.903 105.511 442.744 105.955 444.881 105.955C446.358 105.955 447.699 105.75 448.903 105.341C450.108 104.932 451.142 104.33 452.006 103.534C452.869 102.739 453.517 101.761 453.949 100.602L469.256 101.045C468.619 104.477 467.222 107.466 465.062 110.011C462.926 112.534 460.119 114.5 456.642 115.909C453.165 117.295 449.142 117.989 444.574 117.989ZM497.065 117.75C493.202 117.75 489.69 116.75 486.531 114.75C483.372 112.75 480.849 109.75 478.963 105.75C477.077 101.75 476.134 96.7841 476.134 90.8523C476.134 84.6932 477.111 79.625 479.065 75.6477C481.02 71.6705 483.577 68.7273 486.736 66.8182C489.918 64.9091 493.338 63.9545 496.997 63.9545C499.747 63.9545 502.099 64.4318 504.054 65.3864C506.009 66.3182 507.622 67.5227 508.895 69C510.168 70.4773 511.134 72.0114 511.793 73.6023H512.134V47.1818H528.804V117H512.304V108.511H511.793C511.088 110.125 510.088 111.636 508.793 113.045C507.497 114.455 505.872 115.591 503.918 116.455C501.986 117.318 499.702 117.75 497.065 117.75ZM502.861 104.761C504.884 104.761 506.611 104.193 508.043 103.057C509.474 101.898 510.577 100.273 511.349 98.1818C512.122 96.0909 512.509 93.6364 512.509 90.8182C512.509 87.9545 512.122 85.4886 511.349 83.4205C510.599 81.3523 509.497 79.7614 508.043 78.6477C506.611 77.5341 504.884 76.9773 502.861 76.9773C500.793 76.9773 499.043 77.5455 497.611 78.6818C496.179 79.8182 495.088 81.4205 494.338 83.4886C493.611 85.5568 493.247 88 493.247 90.8182C493.247 93.6364 493.622 96.0909 494.372 98.1818C495.122 100.273 496.202 101.898 497.611 103.057C499.043 104.193 500.793 104.761 502.861 104.761ZM573.131 94.3977V64.6364H589.767V117H573.881V107.25H573.335C572.176 110.455 570.199 113 567.403 114.886C564.631 116.75 561.278 117.682 557.347 117.682C553.778 117.682 550.642 116.864 547.938 115.227C545.233 113.591 543.131 111.307 541.631 108.375C540.131 105.42 539.369 101.966 539.347 98.0114V64.6364H556.017V94.7386C556.04 97.5795 556.79 99.8182 558.267 101.455C559.744 103.091 561.756 103.909 564.301 103.909C565.96 103.909 567.449 103.545 568.767 102.818C570.108 102.068 571.165 100.989 571.938 99.5795C572.733 98.1477 573.131 96.4205 573.131 94.3977ZM600.378 117V64.6364H616.571V74.1818H617.116C618.071 70.7273 619.628 68.1591 621.787 66.4773C623.946 64.7727 626.457 63.9205 629.321 63.9205C630.094 63.9205 630.889 63.9773 631.707 64.0909C632.526 64.1818 633.287 64.3295 633.991 64.5341V79.0227C633.196 78.75 632.151 78.5341 630.855 78.375C629.582 78.2159 628.446 78.1364 627.446 78.1364C625.469 78.1364 623.685 78.5795 622.094 79.4659C620.526 80.3295 619.287 81.5455 618.378 83.1136C617.491 84.6591 617.048 86.4773 617.048 88.5682V117H600.378ZM662.543 117.989C657.065 117.989 652.338 116.909 648.361 114.75C644.406 112.568 641.361 109.466 639.224 105.443C637.111 101.398 636.054 96.5909 636.054 91.0227C636.054 85.6136 637.122 80.8864 639.259 76.8409C641.395 72.7727 644.406 69.6136 648.293 67.3636C652.179 65.0909 656.759 63.9545 662.031 63.9545C665.759 63.9545 669.168 64.5341 672.259 65.6932C675.349 66.8523 678.02 68.5682 680.27 70.8409C682.52 73.1136 684.27 75.9205 685.52 79.2614C686.77 82.5795 687.395 86.3864 687.395 90.6818V94.8409H641.884V85.1591H671.884C671.861 83.3864 671.44 81.8068 670.622 80.4205C669.804 79.0341 668.679 77.9545 667.247 77.1818C665.838 76.3864 664.213 75.9886 662.372 75.9886C660.509 75.9886 658.838 76.4091 657.361 77.25C655.884 78.0682 654.713 79.1932 653.849 80.625C652.986 82.0341 652.531 83.6364 652.486 85.4318V95.2841C652.486 97.4205 652.906 99.2955 653.747 100.909C654.588 102.5 655.781 103.739 657.327 104.625C658.872 105.511 660.713 105.955 662.849 105.955C664.327 105.955 665.668 105.75 666.872 105.341C668.077 104.932 669.111 104.33 669.974 103.534C670.838 102.739 671.486 101.761 671.918 100.602L687.224 101.045C686.588 104.477 685.19 107.466 683.031 110.011C680.895 112.534 678.088 114.5 674.611 115.909C671.134 117.295 667.111 117.989 662.543 117.989ZM716.534 117V47.1818H733.205V73.6023H733.545C734.227 72.0114 735.193 70.4773 736.443 69C737.716 67.5227 739.33 66.3182 741.284 65.3864C743.261 64.4318 745.625 63.9545 748.375 63.9545C752.011 63.9545 755.409 64.9091 758.568 66.8182C761.75 68.7273 764.318 71.6705 766.273 75.6477C768.227 79.625 769.205 84.6932 769.205 90.8523C769.205 96.7841 768.261 101.75 766.375 105.75C764.511 109.75 761.989 112.75 758.807 114.75C755.648 116.75 752.136 117.75 748.273 117.75C745.636 117.75 743.352 117.318 741.42 116.455C739.489 115.591 737.864 114.455 736.545 113.045C735.25 111.636 734.25 110.125 733.545 108.511H733.034V117H716.534ZM732.864 90.8182C732.864 93.6364 733.239 96.0909 733.989 98.1818C734.761 100.273 735.864 101.898 737.295 103.057C738.75 104.193 740.489 104.761 742.511 104.761C744.557 104.761 746.295 104.193 747.727 103.057C749.159 101.898 750.239 100.273 750.966 98.1818C751.716 96.0909 752.091 93.6364 752.091 90.8182C752.091 88 751.716 85.5568 750.966 83.4886C750.239 81.4205 749.159 79.8182 747.727 78.6818C746.318 77.5455 744.58 76.9773 742.511 76.9773C740.466 76.9773 738.727 77.5341 737.295 78.6477C735.864 79.7614 734.761 81.3523 733.989 83.4205C733.239 85.4886 732.864 87.9545 732.864 90.8182ZM811.724 94.3977V64.6364H828.361V117H812.474V107.25H811.929C810.77 110.455 808.793 113 805.997 114.886C803.224 116.75 799.872 117.682 795.94 117.682C792.372 117.682 789.236 116.864 786.531 115.227C783.827 113.591 781.724 111.307 780.224 108.375C778.724 105.42 777.963 101.966 777.94 98.0114V64.6364H794.611V94.7386C794.634 97.5795 795.384 99.8182 796.861 101.455C798.338 103.091 800.349 103.909 802.895 103.909C804.554 103.909 806.043 103.545 807.361 102.818C808.702 102.068 809.759 100.989 810.531 99.5795C811.327 98.1477 811.724 96.4205 811.724 94.3977ZM838.972 117V64.6364H855.642V117H838.972ZM847.324 58.5341C844.983 58.5341 842.972 57.7614 841.29 56.2159C839.608 54.6477 838.767 52.7614 838.767 50.5568C838.767 48.375 839.608 46.5114 841.29 44.9659C842.972 43.3977 844.983 42.6136 847.324 42.6136C849.688 42.6136 851.699 43.3977 853.358 44.9659C855.04 46.5114 855.881 48.375 855.881 50.5568C855.881 52.7614 855.04 54.6477 853.358 56.2159C851.699 57.7614 849.688 58.5341 847.324 58.5341ZM882.923 47.1818V117H866.253V47.1818H882.923ZM912.659 117.75C908.795 117.75 905.284 116.75 902.125 114.75C898.966 112.75 896.443 109.75 894.557 105.75C892.67 101.75 891.727 96.7841 891.727 90.8523C891.727 84.6932 892.705 79.625 894.659 75.6477C896.614 71.6705 899.17 68.7273 902.33 66.8182C905.511 64.9091 908.932 63.9545 912.591 63.9545C915.341 63.9545 917.693 64.4318 919.648 65.3864C921.602 66.3182 923.216 67.5227 924.489 69C925.761 70.4773 926.727 72.0114 927.386 73.6023H927.727V47.1818H944.398V117H927.898V108.511H927.386C926.682 110.125 925.682 111.636 924.386 113.045C923.091 114.455 921.466 115.591 919.511 116.455C917.58 117.318 915.295 117.75 912.659 117.75ZM918.455 104.761C920.477 104.761 922.205 104.193 923.636 103.057C925.068 101.898 926.17 100.273 926.943 98.1818C927.716 96.0909 928.102 93.6364 928.102 90.8182C928.102 87.9545 927.716 85.4886 926.943 83.4205C926.193 81.3523 925.091 79.7614 923.636 78.6477C922.205 77.5341 920.477 76.9773 918.455 76.9773C916.386 76.9773 914.636 77.5455 913.205 78.6818C911.773 79.8182 910.682 81.4205 909.932 83.4886C909.205 85.5568 908.841 88 908.841 90.8182C908.841 93.6364 909.216 96.0909 909.966 98.1818C910.716 100.273 911.795 101.898 913.205 103.057C914.636 104.193 916.386 104.761 918.455 104.761ZM979.418 117.989C973.94 117.989 969.213 116.909 965.236 114.75C961.281 112.568 958.236 109.466 956.099 105.443C953.986 101.398 952.929 96.5909 952.929 91.0227C952.929 85.6136 953.997 80.8864 956.134 76.8409C958.27 72.7727 961.281 69.6136 965.168 67.3636C969.054 65.0909 973.634 63.9545 978.906 63.9545C982.634 63.9545 986.043 64.5341 989.134 65.6932C992.224 66.8523 994.895 68.5682 997.145 70.8409C999.395 73.1136 1001.14 75.9205 1002.39 79.2614C1003.64 82.5795 1004.27 86.3864 1004.27 90.6818V94.8409H958.759V85.1591H988.759C988.736 83.3864 988.315 81.8068 987.497 80.4205C986.679 79.0341 985.554 77.9545 984.122 77.1818C982.713 76.3864 981.088 75.9886 979.247 75.9886C977.384 75.9886 975.713 76.4091 974.236 77.25C972.759 78.0682 971.588 79.1932 970.724 80.625C969.861 82.0341 969.406 83.6364 969.361 85.4318V95.2841C969.361 97.4205 969.781 99.2955 970.622 100.909C971.463 102.5 972.656 103.739 974.202 104.625C975.747 105.511 977.588 105.955 979.724 105.955C981.202 105.955 982.543 105.75 983.747 105.341C984.952 104.932 985.986 104.33 986.849 103.534C987.713 102.739 988.361 101.761 988.793 100.602L1004.1 101.045C1003.46 104.477 1002.07 107.466 999.906 110.011C997.77 112.534 994.963 114.5 991.486 115.909C988.009 117.295 983.986 117.989 979.418 117.989ZM1012.78 117V64.6364H1028.98V74.1818H1029.52C1030.48 70.7273 1032.03 68.1591 1034.19 66.4773C1036.35 64.7727 1038.86 63.9205 1041.73 63.9205C1042.5 63.9205 1043.3 63.9773 1044.11 64.0909C1044.93 64.1818 1045.69 64.3295 1046.4 64.5341V79.0227C1045.6 78.75 1044.56 78.5341 1043.26 78.375C1041.99 78.2159 1040.85 78.1364 1039.85 78.1364C1037.88 78.1364 1036.09 78.5795 1034.5 79.4659C1032.93 80.3295 1031.69 81.5455 1030.78 83.1136C1029.9 84.6591 1029.45 86.4773 1029.45 88.5682V117H1012.78Z" fill="white"/>
</svg>
